<?xml version="1.0" standalone="no"?>
<!DOCTYPE svg PUBLIC "-//W3C//DTD SVG 20010904//EN"
 "http://www.w3.org/TR/2001/REC-SVG-20010904/DTD/svg10.dtd">
<svg version="1.0" xmlns="http://www.w3.org/2000/svg"
 width="2560.000000pt" height="1600.000000pt" viewBox="0 0 2560.000000 1600.000000"
 preserveAspectRatio="xMidYMid meet">
<metadata>
Created by potrace 1.13, written by Peter Selinger 2001-2015
</metadata>
<g transform="translate(0.000000,1600.000000) scale(0.100000,-0.100000)"
fill="#000000" stroke="none">
<path d="M25550 14768 c-19 -17 -49 -44 -67 -59 -18 -16 -65 -56 -105 -90 -40
-34 -77 -67 -83 -73 -5 -6 -37 -33 -70 -61 -33 -27 -67 -56 -75 -65 -8 -8 -44
-40 -80 -70 -36 -30 -67 -57 -70 -60 -3 -3 -34 -30 -70 -60 -36 -30 -72 -62
-80 -70 -8 -8 -44 -40 -80 -70 -36 -30 -72 -62 -80 -70 -8 -8 -44 -40 -80 -70
-36 -30 -67 -57 -70 -60 -3 -3 -34 -30 -70 -60 -36 -30 -72 -62 -80 -70 -8 -8
-44 -40 -80 -70 -36 -30 -69 -60 -75 -66 -5 -7 -41 -38 -80 -70 -38 -32 -72
-60 -75 -63 -3 -4 -34 -31 -70 -61 -36 -30 -72 -62 -80 -70 -8 -8 -33 -30 -55
-49 -48 -41 -152 -131 -214 -186 -26 -23 -75 -65 -111 -95 -36 -30 -72 -62
-80 -70 -8 -8 -33 -30 -55 -49 -22 -19 -67 -57 -100 -86 -33 -29 -100 -87
-150 -130 -49 -43 -119 -103 -155 -135 -36 -32 -139 -122 -230 -200 -91 -78
-194 -168 -230 -200 -36 -31 -83 -73 -105 -91 -22 -19 -42 -36 -45 -39 -3 -3
-39 -35 -80 -70 -41 -35 -77 -66 -80 -69 -3 -3 -34 -31 -70 -61 -36 -30 -72
-62 -80 -70 -8 -8 -44 -40 -80 -70 -36 -30 -67 -57 -70 -60 -3 -3 -39 -34 -80
-70 -41 -36 -77 -67 -80 -70 -3 -3 -34 -30 -70 -60 -36 -30 -72 -62 -80 -70
-8 -8 -67 -60 -130 -114 -63 -54 -142 -122 -175 -151 -33 -29 -78 -67 -100
-86 -22 -19 -47 -41 -55 -49 -8 -8 -44 -40 -80 -70 -36 -30 -67 -57 -70 -60
-3 -3 -34 -30 -70 -60 -36 -30 -72 -62 -80 -70 -8 -8 -44 -40 -80 -70 -36 -30
-72 -62 -80 -70 -8 -8 -42 -37 -75 -64 -33 -27 -64 -54 -70 -60 -5 -6 -39 -36
-75 -66 -36 -30 -72 -62 -80 -70 -8 -8 -44 -40 -80 -70 -36 -30 -67 -57 -70
-60 -3 -3 -39 -34 -80 -70 -41 -36 -77 -67 -80 -70 -3 -3 -34 -30 -70 -60 -36
-30 -72 -62 -80 -70 -8 -8 -44 -40 -80 -70 -36 -30 -67 -57 -70 -60 -3 -3 -39
-34 -80 -70 -41 -36 -77 -67 -80 -70 -3 -3 -34 -30 -70 -60 -36 -30 -72 -62
-80 -70 -8 -8 -80 -71 -160 -140 -80 -68 -147 -127 -150 -130 -3 -3 -34 -30
-70 -60 -36 -30 -72 -62 -80 -70 -8 -8 -44 -40 -80 -70 -36 -30 -67 -57 -70
-60 -3 -3 -39 -34 -80 -70 -41 -36 -77 -68 -80 -71 -3 -3 -34 -30 -70 -59 -36
-29 -69 -58 -75 -65 -5 -6 -41 -38 -80 -70 -38 -32 -72 -61 -75 -65 -3 -3 -34
-30 -70 -60 -36 -30 -72 -62 -80 -70 -8 -8 -44 -40 -80 -70 -36 -30 -72 -62
-80 -70 -8 -9 -31 -28 -50 -44 -35 -29 -136 -116 -220 -191 -25 -23 -74 -65
-110 -95 -36 -30 -67 -57 -70 -60 -8 -8 -150 -132 -235 -205 -44 -38 -82 -72
-85 -75 -3 -3 -34 -30 -70 -60 -36 -30 -67 -57 -70 -60 -3 -3 -39 -34 -80 -70
-41 -36 -77 -67 -80 -70 -3 -3 -34 -30 -70 -60 -36 -30 -72 -62 -80 -70 -8 -8
-44 -40 -80 -70 -36 -30 -67 -57 -70 -60 -3 -3 -39 -34 -80 -70 -41 -36 -77
-67 -80 -70 -3 -3 -34 -30 -70 -60 -36 -30 -72 -62 -80 -70 -8 -8 -44 -40 -80
-70 -36 -30 -67 -57 -70 -60 -3 -3 -39 -34 -80 -70 -41 -36 -77 -67 -80 -70
-3 -3 -34 -30 -70 -60 -36 -29 -72 -61 -80 -70 -8 -9 -44 -41 -80 -70 -36 -30
-67 -57 -70 -60 -3 -3 -39 -34 -80 -70 -41 -36 -77 -67 -80 -70 -3 -3 -34 -30
-70 -60 -36 -30 -72 -62 -80 -70 -8 -8 -44 -40 -80 -70 -36 -30 -67 -57 -70
-60 -3 -3 -39 -34 -80 -70 -41 -36 -77 -67 -80 -70 -3 -3 -34 -30 -70 -60 -36
-30 -72 -62 -80 -70 -8 -8 -44 -40 -80 -70 -36 -30 -67 -57 -70 -60 -3 -3 -39
-34 -80 -70 -41 -36 -77 -67 -80 -70 -3 -3 -34 -30 -70 -60 -36 -30 -67 -57
-70 -60 -3 -3 -39 -34 -80 -70 -41 -36 -77 -67 -80 -70 -3 -3 -39 -34 -80 -70
-41 -35 -77 -67 -80 -70 -3 -3 -34 -30 -70 -60 -36 -30 -72 -62 -80 -70 -8 -8
-44 -40 -80 -70 -36 -30 -67 -57 -70 -60 -3 -3 -34 -30 -70 -60 -36 -30 -72
-62 -80 -70 -8 -8 -44 -40 -80 -70 -36 -30 -67 -57 -70 -60 -3 -3 -39 -34 -80
-70 -41 -36 -77 -67 -80 -70 -3 -3 -34 -30 -70 -60 -36 -30 -72 -62 -80 -70
-8 -8 -44 -40 -80 -70 -36 -30 -67 -57 -70 -60 -3 -3 -39 -35 -80 -70 -41 -35
-77 -66 -80 -69 -3 -3 -34 -31 -70 -61 -36 -30 -72 -62 -80 -70 -8 -8 -44 -40
-80 -70 -36 -30 -67 -57 -70 -60 -3 -3 -39 -34 -80 -70 -41 -36 -77 -67 -80
-70 -3 -3 -34 -30 -70 -60 -36 -30 -72 -62 -80 -70 -8 -8 -44 -40 -80 -70 -36
-30 -67 -57 -70 -60 -12 -12 -170 -150 -230 -200 -36 -30 -69 -60 -75 -66 -5
-7 -41 -38 -80 -70 -38 -32 -72 -60 -75 -64 -3 -3 -34 -30 -70 -60 -36 -30
-72 -62 -80 -70 -8 -8 -44 -40 -80 -70 -36 -30 -72 -62 -80 -70 -8 -8 -44 -40
-80 -70 -36 -30 -67 -57 -70 -60 -3 -3 -34 -30 -70 -60 -36 -30 -72 -62 -80
-70 -8 -8 -44 -40 -80 -70 -36 -30 -72 -62 -80 -70 -8 -8 -44 -40 -80 -70 -36
-30 -67 -57 -70 -60 -3 -3 -34 -30 -70 -60 -36 -30 -72 -62 -80 -70 -8 -8 -44
-40 -80 -70 -36 -30 -67 -57 -70 -60 -3 -3 -39 -34 -80 -70 -41 -36 -77 -67
-80 -70 -3 -3 -34 -30 -70 -60 -36 -30 -72 -62 -80 -70 -8 -8 -44 -40 -80 -70
-36 -30 -67 -57 -70 -60 -3 -3 -39 -34 -80 -70 -41 -36 -77 -67 -80 -70 -3 -3
-34 -30 -70 -60 -36 -30 -72 -62 -80 -70 -8 -8 -44 -40 -80 -70 -36 -30 -67
-58 -70 -61 -3 -3 -39 -34 -80 -69 -41 -35 -77 -67 -80 -70 -3 -3 -34 -30 -70
-60 -36 -30 -72 -62 -80 -70 -8 -8 -44 -40 -80 -70 -36 -30 -67 -57 -70 -60
-3 -3 -34 -30 -70 -60 -36 -30 -72 -62 -80 -70 -8 -8 -44 -40 -80 -70 -36 -30
-72 -62 -80 -70 -8 -8 -44 -40 -80 -70 -36 -30 -67 -57 -70 -60 -3 -3 -34 -30
-69 -60 -36 -30 -83 -72 -105 -93 l-41 -37 1888 0 c1682 0 1887 2 1887 15 0 9
12 21 28 28 15 6 31 17 35 24 4 7 13 13 20 13 7 0 23 12 36 26 19 20 24 35 23
70 -2 42 -1 44 27 44 16 0 32 -6 35 -12 5 -10 7 -10 12 0 3 6 12 12 20 12 7 0
21 12 31 28 10 15 20 29 23 32 4 3 9 13 13 22 4 13 17 18 42 18 19 0 35 4 35
9 0 12 55 68 72 73 7 3 12 20 12 39 1 32 3 34 39 37 22 2 37 8 37 16 0 7 18
19 40 26 36 12 44 20 42 41 -2 12 69 73 88 76 11 1 32 16 47 31 16 16 36 31
46 35 9 3 17 12 17 20 0 15 36 49 65 61 13 5 16 10 8 13 -7 3 -13 18 -13 34 0
22 5 29 20 29 11 0 20 5 20 10 0 6 5 10 10 10 6 0 10 -11 10 -25 0 -32 13 -32
38 0 11 14 25 25 31 25 6 0 11 4 11 9 0 12 59 71 71 71 5 0 9 6 9 13 0 7 16
19 36 26 39 14 67 37 77 65 4 10 16 20 27 23 18 5 24 14 22 34 -2 12 69 73 88
76 11 1 32 16 47 31 16 16 36 31 46 35 9 3 17 13 17 21 0 8 9 18 20 21 11 3
20 11 20 16 0 6 9 7 21 4 18 -6 20 -4 15 13 -8 23 17 52 44 52 10 0 27 11 38
25 11 14 25 25 31 25 6 0 11 9 11 20 0 17 3 19 19 10 17 -8 23 -5 42 23 36 53
92 107 110 107 9 0 19 9 22 20 3 11 18 25 33 31 33 12 94 75 94 95 0 8 7 14
15 14 8 0 27 13 42 28 16 16 36 31 46 35 9 3 17 13 17 21 0 8 9 18 20 21 11 3
20 12 20 18 0 13 45 37 67 37 7 0 13 8 13 18 0 20 36 54 65 62 11 3 29 22 40
43 17 30 25 37 51 37 23 0 33 5 37 20 3 11 13 23 23 27 22 8 49 35 57 57 4 10
16 20 27 23 11 3 20 12 20 19 0 8 9 14 20 14 11 0 20 4 20 10 0 5 18 21 40 35
22 14 40 32 40 39 0 8 9 17 19 21 10 3 22 16 25 29 3 13 11 24 18 23 42 -1 58
4 58 21 0 9 16 26 38 37 21 11 38 29 40 40 1 11 19 29 40 40 21 12 38 29 40
41 2 13 20 29 52 45 27 13 50 30 50 36 0 7 14 19 30 28 17 9 30 20 30 25 0 6
7 10 15 10 28 0 63 47 63 85 0 50 25 75 74 75 29 0 45 6 59 23 15 17 20 19 27
9 6 -8 7 7 4 39 -3 37 -2 50 7 45 6 -4 11 -14 11 -22 0 -8 9 -14 20 -14 15 0
20 7 20 29 0 31 24 59 35 41 10 -16 35 -12 29 5 -8 19 15 48 32 41 7 -3 16 -1
19 4 10 15 25 12 25 -6 0 -8 4 -13 9 -10 5 3 7 15 4 26 -3 11 -9 18 -13 15 -5
-3 -11 -1 -14 4 -8 12 26 23 45 16 9 -3 18 5 26 25 8 20 18 30 33 30 12 0 18
5 15 10 -10 17 12 11 26 -7 12 -14 12 -16 0 -9 -9 6 -12 5 -9 -4 6 -19 -74
-103 -84 -88 -5 9 -8 8 -8 -5 0 -30 -19 -57 -35 -51 -8 4 -15 12 -15 20 0 8
-3 14 -7 14 -5 0 -8 -15 -8 -34 0 -19 4 -32 10 -29 6 3 -11 -16 -38 -42 -45
-44 -59 -64 -35 -49 7 4 8 3 4 -5 -4 -6 -11 -9 -16 -6 -11 7 -32 -20 -22 -30
4 -5 2 -5 -4 -2 -7 4 -18 -1 -25 -10 -12 -14 -12 -16 0 -8 10 6 12 4 6 -4 -4
-7 -15 -11 -25 -8 -12 3 -17 0 -13 -8 2 -8 -7 -21 -21 -30 -14 -10 -26 -22
-26 -29 0 -6 5 -4 10 4 5 8 10 10 10 4 0 -19 -12 -24 -34 -12 -20 11 -20 10
-6 -7 14 -17 13 -18 -4 -12 -14 5 -17 3 -12 -8 3 -9 -9 -30 -29 -52 -19 -21
-35 -42 -35 -48 0 -5 -5 -3 -10 5 -9 14 -11 10 -10 -15 1 -13 -31 -36 -41 -29
-8 4 -9 3 -5 -5 9 -14 -12 -43 -24 -36 -5 3 -12 0 -16 -6 -5 -8 -3 -9 6 -4 8
5 11 3 8 -6 -3 -8 -13 -14 -23 -14 -10 0 -20 -7 -22 -15 -4 -13 -3 -13 6 0 6
8 11 10 11 4 0 -6 -12 -21 -27 -35 -20 -18 -24 -19 -13 -4 14 18 14 19 -2 7
-9 -8 -15 -19 -12 -27 3 -7 1 -16 -5 -20 -6 -3 -11 -1 -11 4 0 6 -5 11 -10 11
-6 0 -10 -6 -9 -12 3 -26 -1 -39 -11 -33 -5 3 -10 -1 -10 -9 0 -9 -4 -16 -9
-16 -5 0 -12 -9 -16 -19 -3 -11 -18 -24 -33 -30 -15 -5 -21 -10 -13 -10 11 -1
11 -4 1 -16 -7 -8 -17 -12 -23 -8 -5 3 -7 2 -4 -4 4 -6 -5 -21 -19 -34 -21
-20 -27 -21 -34 -9 -5 8 -10 10 -10 5 0 -6 6 -17 13 -24 10 -11 8 -11 -10 -2
-16 8 -24 8 -29 -1 -4 -6 -3 -8 4 -4 6 3 13 2 17 -4 8 -13 -65 -100 -84 -100
-8 0 -12 -3 -9 -6 3 -3 -5 -16 -19 -30 -26 -26 -39 -32 -27 -11 6 9 5 9 -8 0
-8 -7 -18 -9 -23 -5 -4 4 -2 -3 5 -14 12 -19 11 -25 -11 -45 -13 -13 -29 -33
-35 -43 -6 -11 -17 -22 -25 -25 -12 -3 -12 -1 1 15 14 17 13 18 -1 7 -9 -7
-20 -9 -24 -5 -5 4 -5 1 -1 -5 4 -7 2 -23 -5 -35 -12 -23 -109 -139 -158 -189
-14 -15 -46 -50 -71 -78 -24 -28 -52 -53 -62 -57 -9 -3 -15 -11 -12 -17 5 -15
-41 -58 -52 -49 -4 4 -4 2 -1 -4 8 -14 -26 -47 -37 -37 -4 5 -6 3 -4 -3 4 -13
-58 -88 -119 -147 -23 -22 -40 -43 -38 -47 3 -4 -5 -16 -17 -26 -12 -11 -18
-14 -15 -7 4 6 3 15 -3 18 -6 4 -10 3 -9 -2 1 -4 0 -11 -1 -15 -1 -5 -3 -12
-4 -16 0 -5 -13 -20 -28 -34 -16 -14 -28 -29 -28 -33 0 -13 -134 -150 -143
-147 -5 1 -6 -2 -3 -7 4 -5 3 -11 -1 -13 -5 -1 -24 -23 -44 -48 -20 -25 -54
-63 -75 -86 -22 -23 -67 -72 -101 -110 -34 -38 -78 -86 -97 -108 -20 -21 -36
-44 -36 -50 0 -6 -5 -4 -10 4 -8 13 -10 12 -10 -3 0 -10 -17 -34 -37 -55 -21
-20 -43 -46 -50 -57 -6 -11 -16 -19 -23 -17 -6 1 -9 -2 -6 -7 7 -11 -18 -33
-27 -24 -4 3 -7 0 -7 -8 0 -8 -24 -39 -52 -69 -28 -30 -96 -107 -152 -170 -55
-63 -106 -118 -112 -122 -6 -4 -23 -23 -38 -43 l-27 -35 6215 0 6216 0 0 7400
c0 4070 -3 7400 -7 7400 -5 0 -24 -15 -43 -32z"/>
</g>
</svg>
